<?xml version="1.0" encoding="UTF-8" standalone="no"?>
<!-- Created with Inkscape (http://www.inkscape.org/) -->

<svg
   xmlns:osb="http://www.openswatchbook.org/uri/2009/osb"
   xmlns:dc="http://purl.org/dc/elements/1.1/"
   xmlns:cc="http://creativecommons.org/ns#"
   xmlns:rdf="http://www.w3.org/1999/02/22-rdf-syntax-ns#"
   xmlns:svg="http://www.w3.org/2000/svg"
   xmlns="http://www.w3.org/2000/svg"
   xmlns:xlink="http://www.w3.org/1999/xlink"
   xmlns:sodipodi="http://sodipodi.sourceforge.net/DTD/sodipodi-0.dtd"
   xmlns:inkscape="http://www.inkscape.org/namespaces/inkscape"
   sodipodi:docname="arbor.svg"
   inkscape:version="0.91 r13725"
   version="1.1"
   id="svg2"
   viewBox="0 0 744.09448819 1052.3622047"
   height="297mm"
   width="210mm">
  <sodipodi:namedview
     inkscape:snap-global="true"
     inkscape:snap-nodes="true"
     inkscape:snap-others="false"
     inkscape:snap-to-guides="false"
     inkscape:snap-grids="true"
     guidetolerance="10000"
     objecttolerance="10000"
     inkscape:snap-midpoints="false"
     inkscape:snap-smooth-nodes="false"
     inkscape:object-nodes="false"
     inkscape:object-paths="true"
     inkscape:snap-intersection-paths="false"
     inkscape:bbox-nodes="false"
     inkscape:snap-bbox="true"
     inkscape:window-maximized="0"
     inkscape:window-y="0"
     inkscape:window-x="-8"
     inkscape:window-height="1580"
     inkscape:window-width="1050"
     showgrid="true"
     inkscape:current-layer="layer1"
     inkscape:document-units="px"
     inkscape:cy="976.65437"
     inkscape:cx="352.86442"
     inkscape:zoom="0.72754395"
     inkscape:pageshadow="2"
     inkscape:pageopacity="0.0"
     borderopacity="1.0"
     bordercolor="#666666"
     pagecolor="#ffffff"
     id="base">
    <inkscape:grid
       type="xygrid"
       id="grid3336" />
  </sodipodi:namedview>
  <defs
     id="defs4">
    <linearGradient
       id="linearGradient9517"
       osb:paint="solid">
      <stop
         style="stop-color:#4ee31a;stop-opacity:1;"
         offset="0"
         id="stop9519" />
    </linearGradient>
    <linearGradient
       osb:paint="solid"
       id="linearGradient8517">
      <stop
         id="stop8519"
         offset="0"
         style="stop-color:#00f600;stop-opacity:1;" />
    </linearGradient>
    <linearGradient
       osb:paint="solid"
       id="linearGradient7859">
      <stop
         id="stop7861"
         offset="0"
         style="stop-color:#141332;stop-opacity:1;" />
    </linearGradient>
    <marker
       inkscape:isstock="true"
       style="overflow:visible;"
       id="Arrow1Mend"
       refX="0.0"
       refY="0.0"
       orient="auto"
       inkscape:stockid="Arrow1Mend">
      <path
         transform="scale(0.4) rotate(180) translate(10,0)"
         style="fill-rule:evenodd;stroke:none;stroke-width:1pt;stroke-opacity:1;fill:#00ff00;fill-opacity:1"
         d="M 0.0,0.0 L 5.0,-5.0 L -12.5,0.0 L 5.0,5.0 L 0.0,0.0 z "
         id="path5918" />
    </marker>
    <linearGradient
       gradientTransform="translate(-27.93917,270.56874)"
       inkscape:collect="always"
       xlink:href="#linearGradient6055"
       id="linearGradient6061"
       x1="393.46036"
       y1="1.8035582"
       x2="396.47897"
       y2="363.43817"
       gradientUnits="userSpaceOnUse" />
    <linearGradient
       inkscape:collect="always"
       id="linearGradient6055">
      <stop
         style="stop-color:#00bbff;stop-opacity:1"
         offset="0"
         id="stop6057" />
      <stop
         style="stop-color:#ffffff;stop-opacity:1"
         offset="1"
         id="stop6059" />
    </linearGradient>
    <linearGradient
       gradientTransform="translate(-1459.9392,-485.4313)"
       inkscape:collect="always"
       xlink:href="#linearGradient6108"
       id="linearGradient6061-9"
       x1="395.48065"
       y1="56.351795"
       x2="396.47897"
       y2="363.43817"
       gradientUnits="userSpaceOnUse" />
    <linearGradient
       id="linearGradient6108"
       inkscape:collect="always">
      <stop
         id="stop6110"
         offset="0"
         style="stop-color:#ffffff;stop-opacity:1" />
      <stop
         id="stop6112"
         offset="1"
         style="stop-color:#0fbfff;stop-opacity:1" />
    </linearGradient>
    <filter
       inkscape:collect="always"
       style="color-interpolation-filters:sRGB"
       id="filter6310"
       x="-0.011392553"
       width="1.0227851"
       y="-0.031978529"
       height="1.0639571">
      <feGaussianBlur
         inkscape:collect="always"
         stdDeviation="3.1455703"
         id="feGaussianBlur6312" />
    </filter>
    <linearGradient
       inkscape:collect="always"
       id="linearGradient8168">
      <stop
         style="stop-color:#ffffff;stop-opacity:1;"
         offset="0"
         id="stop8170" />
      <stop
         style="stop-color:#00bbff;stop-opacity:1"
         offset="1"
         id="stop8172" />
    </linearGradient>
    <linearGradient
       inkscape:collect="always"
       xlink:href="#linearGradient8168"
       id="linearGradient9118"
       x1="-665.84961"
       y1="204.36215"
       x2="-658.15039"
       y2="656.36212"
       gradientUnits="userSpaceOnUse"
       gradientTransform="translate(1026,76)" />
    <filter
       inkscape:collect="always"
       style="color-interpolation-filters:sRGB"
       id="filter9148"
       x="-0.040281031"
       width="1.0805621"
       y="-0.09402551"
       height="1.188051">
      <feGaussianBlur
         inkscape:collect="always"
         stdDeviation="11.189721"
         id="feGaussianBlur9150" />
    </filter>
    <radialGradient
       inkscape:collect="always"
       xlink:href="#linearGradient10076"
       id="radialGradient10084"
       cx="471.55298"
       cy="303.23154"
       fx="471.55298"
       fy="303.23154"
       r="150.14999"
       gradientTransform="matrix(0.04896535,0.29379208,-0.79920086,0.13320016,534.25315,555.43319)"
       gradientUnits="userSpaceOnUse" />
    <linearGradient
       inkscape:collect="always"
       id="linearGradient10076">
      <stop
         style="stop-color:#ffffff;stop-opacity:1"
         offset="0"
         id="stop10078" />
      <stop
         style="stop-color:#ff0000;stop-opacity:1"
         offset="1"
         id="stop10080" />
    </linearGradient>
    <linearGradient
       gradientTransform="translate(-85,402)"
       inkscape:collect="always"
       xlink:href="#linearGradient10096"
       id="linearGradient10092"
       x1="300"
       y1="372.36221"
       x2="600"
       y2="372.36221"
       gradientUnits="userSpaceOnUse" />
    <linearGradient
       id="linearGradient10096"
       inkscape:collect="always">
      <stop
         id="stop10098"
         offset="0"
         style="stop-color:#ff0000;stop-opacity:1" />
      <stop
         style="stop-color:#ffffff;stop-opacity:1"
         offset="0.2"
         id="stop10102" />
      <stop
         id="stop10100"
         offset="1"
         style="stop-color:#ff0000;stop-opacity:1" />
    </linearGradient>
  </defs>
  <metadata
     id="metadata7">
    <rdf:RDF>
      <cc:Work
         rdf:about="">
        <dc:format>image/svg+xml</dc:format>
        <dc:type
           rdf:resource="http://purl.org/dc/dcmitype/StillImage" />
        <dc:title />
      </cc:Work>
    </rdf:RDF>
  </metadata>
  <g
     style="display:inline"
     inkscape:label="branches"
     inkscape:groupmode="layer"
     id="layer1">
    <path
       sodipodi:nodetypes="cccccccccccccccccccccccccccccccccccccccccccccccccccccccccccccccccccccccccccccccccccccccccccccccccccccccccccccccccccccccccccccccccccccccccccccccccccccccccccccccccccccccccccccccccccccccccccccccccccccccccccccccccccccccccccccccccccccccccccccccccccccccccccccccccccccccccccccccccccccccccccccccccccccccccccccccccccccccccccccccccccccccccccccccccccccccccccccccccccccccccccccccccccccccccccccccccccccccccccccccccccccccccccccccccccccccccccccccccccccccccccccccccccccccccccccccccccccccccccccccccccccccccccccccccccccccccccccccccccccccccccccccccccccccccccccccccccccccccccccccccccccccccccccccccccccccccccccccccc"
       inkscape:connector-curvature="0"
       id="path5027"
       d="m 320.5253,317.55275 -4.58594,8.81446 -9.26953,7.6875 -5.61524,11.55273 -5.31054,-9.0332 -0.86133,0.50586 5.72851,9.75 1.90235,15.34375 -13.86914,-1.11914 -10.83985,3.64648 0.32032,0.94922 10.64257,-3.58203 14.10547,1.13867 0.002,0.002 17.46484,16.25196 0.002,0.002 11.35547,24.82617 0,0.004 0.22266,42.44922 -25.31446,42.39062 -23.92773,-39.77148 0,-0.002 -0.85547,-7.91406 -2.21484,-20.49023 9.79687,-17.60743 0.002,-0.002 9.63671,-6.29297 9.83985,0.85352 0.0859,-0.99805 -10.1836,-0.88086 -9.16601,5.98438 1.11523,-12.56641 -3.08203,-10.75976 -0.96094,0.27539 3.0293,10.58007 -1.17969,13.30079 0,0.002 -9.51758,17.10156 -9.01367,-11.60742 -0.0625,-11.99805 -3.94141,-10.19531 -0.93164,0.35938 3.87305,10.02539 0.0566,11.18554 -11.6875,-5.58789 -6.0625,-10.05469 -0.85742,0.51563 5.76758,9.56641 -11.49805,2.14453 0.1836,0.98437 12.04687,-2.24805 12.29102,5.875 9.42187,12.13282 0.002,0.002 2.9961,27.72461 -32.66602,-12.26172 -0.002,0 0,-0.002 -0.002,0 -16.06641,-17.21485 0,-0.002 -5.45313,-13.33203 0.83399,-11.33984 -0.9961,-0.0742 -0.85351,11.57422 5.19336,12.69531 -12.17578,-3.35938 -8.63281,-8.6875 -0.70899,0.70508 8.82031,8.875 13.27539,3.66406 15.55469,16.66407 -17.96094,5.02734 -13.26367,-2.71484 -8.66797,-7.0918 -0.63281,0.77344 8.85742,7.24804 12.84375,2.63086 -9.22265,12.11719 -9.21875,3.88086 0.38867,0.92188 8.4082,-3.53907 -2.50781,9.57813 0.9668,0.2539 2.73828,-10.46093 0,-0.002 0.002,-0.002 2.07422,-2.72656 7.54883,-9.91602 18.54882,-5.19336 33.22071,12.47071 0.002,0 0,0.002 24.26758,40.33594 0,0.002 2.64062,27.11523 2.92735,39.80225 -55.06406,-13.81982 -0.002,-0.002 -20.57031,-17.62109 -3.32422,-2.84766 -6.22851,-11.6914 -2.55665,-4.79688 0.56836,-15.01367 8.03711,-9.12305 1.9336,-10.72656 -0.98438,-0.17773 -1.88476,10.45312 -8.08594,9.18164 -0.56055,14.76367 -14.39258,-6.41015 -7.36523,-8.77344 -0.76563,0.64258 7.51368,8.94922 15.11914,6.73632 0.002,0 7.4043,13.89844 0.82812,1.55469 -21.86523,-7.00195 0,-0.002 -5.06836,-7.95507 -6.13477,-9.63282 0.30664,-16.16015 -5.13671,-9.60742 -0.88086,0.47265 5.01171,9.37695 -0.28906,15.23438 -13.95312,-7.41406 -6.79688,-8.71094 -0.78906,0.61523 6.10742,7.82813 -8.84375,-1.17774 -0.13281,0.99219 9.96875,1.32813 0.002,0 14.57227,7.74414 10.96289,17.21484 -1.07617,0.35156 -14.39063,4.7168 -0.002,0 -12.83203,-1.88672 -8.33789,-7.53906 -0.66993,0.74219 8.5625,7.74218 12.10547,1.78125 -9.02929,7.18164 -10.53711,3.24219 0.29492,0.95508 10.7168,-3.29687 10.00781,-7.95899 0,-0.002 15.95898,-5.22852 17.83399,5.71094 5.125,1.64062 23.24804,19.91407 -14.73828,3.71093 -30.36914,7.64844 -29.72265,-8.20312 -11.28907,-11.48242 -12.10156,-5.2461 -0.39648,0.91797 11.92187,5.16992 10.69141,10.87305 -2.5625,0.88281 -16.77149,5.77344 -14.30859,-4.41016 -6.98438,-10.43945 -0.83203,0.55469 7.1836,10.73633 14.17383,4.36914 -6.20118,9.6582 -2.28515,10.29883 0.97656,0.21679 2.24609,-10.125 6.36524,-9.91601 19.92773,-6.86133 28.92969,7.98242 -26.27148,22.75782 -0.002,0 -26.9414,2.43164 -13.07813,-4.66211 -6.67187,-9.54102 -0.81836,0.57422 6.85351,9.80078 12.41211,4.42578 -9.14648,4.82422 -7.79102,4.10938 -13.95117,-1.22461 -10.83789,-5.69922 -6.54492,-8.56836 -0.79492,0.60742 6.67968,8.74219 11.21094,5.89648 13.55469,1.19141 -7.49414,14.50976 -0.12305,1.33594 -4.75391,-6.32422 -0.79882,0.59961 5.41406,7.20703 -1.10352,11.92969 5.41602,10.41211 0.88672,-0.46094 -5.2793,-10.15039 0.97656,-10.53906 0.59766,0.79687 10.92187,3.88672 -8.72461,4.01172 0.41797,0.9082 9.75782,-4.48632 10.06445,-0.62696 3.85937,-0.24023 -7.38281,11.74023 0.8457,0.53125 7.84375,-12.4707 14.16211,-9.1543 0.28125,2.09375 1.95118,14.53711 0,0.002 -4.57618,8.84765 0.88672,0.45899 4.26563,-8.24024 6.74219,9.98633 0.82812,-0.56055 -7.14844,-10.58593 0,-0.002 -2.32617,-17.32226 10.08203,-24.75586 0.002,-0.002 26.91796,-23.3164 45.9336,-11.56641 56.00329,15.69304 48.9828,62.07609 -0.9642,99.06271 8.96918,-0.0433 -1.5358,-99.47454 0.0893,-0.18057 7.08844,-15.40434 23.43454,-44.82761 47.67855,-29.47962 34.52149,1.92187 10.93164,0.60742 0.002,0 23.72851,14.42579 0.002,0.002 9.01953,14.75976 0,0.002 1.99414,15.5957 7.01563,7.59375 0.73437,-0.67969 -6.79883,-7.35937 -1.83203,-14.32227 8.46094,5.41016 0.53906,-0.84375 -9.26367,-5.92383 -0.002,-0.002 -8.49219,-13.90039 21.96875,4.02929 0.002,0 15.32031,13.60352 4.39453,13.03906 7.58204,7.90235 0.7207,-0.69336 -7.42578,-7.74024 -4.08203,-12.11133 16.32031,3.6543 8.86523,9.87305 0.74414,-0.66992 -9.07812,-10.10743 -17.37109,-3.89062 -0.004,-0.002 -14.89649,-13.22461 8.49415,-4.61914 6.44335,-3.50391 0.002,0 10.71875,0.004 0,-1 -9.89453,-0.004 2.66992,-3.86328 4.99414,-7.23047 5.91797,-3.75195 0.002,0 6.21289,7.24414 0.75781,-0.65039 -6.11914,-7.13477 1.51368,-0.95898 9.04296,-0.21094 9.00782,5.74023 0.53711,-0.84179 -9.26563,-5.9043 -7.68359,0.17773 0.3789,-0.24023 -0.53515,-0.8457 -1.78321,1.13086 -0.002,0 -2.95117,0.0684 -4.53125,-2.06446 0.12695,-2.82031 -1,-0.0449 -0.10742,2.41601 -0.002,0 -12.97656,-5.91406 15.2871,-10.40234 0.73243,-0.49805 16.33398,-0.11914 10.32227,-4.7207 -0.41602,-0.91016 -10.12695,4.63086 -15.47071,0.11328 7.57227,-15.82812 -3.13086,-12.77344 0,-0.002 3,-10 -0.95703,-0.28711 -2.82813,9.42578 -8.50781,-6.72657 -0.62109,0.78516 8.95117,7.07617 0,0.002 3.03906,12.39062 -7.70898,16.10547 -16.63477,11.32031 -0.002,0 -26.875,-0.57031 0.81836,-1.73242 6.44922,-13.6543 0,-0.002 1.85156,-1.03516 0.11133,0.32422 0.94531,-0.32617 -0.16992,-0.49414 0,-0.002 7.04492,-3.94336 -0.48828,-0.87304 -6.88867,3.85742 -2.94141,-8.5332 10.10742,3.08203 0.29102,-0.95508 -10.95508,-3.3418 -0.004,-0.002 -1.85546,-1.43164 -0.008,-0.0371 -0.0293,0.008 -7.9375,-6.125 14.68359,-7.78711 10.82422,1.7461 0.1582,-0.98633 -11.15429,-1.79883 -15.5586,8.25 -0.002,0 -19.68555,0.27149 9.53711,-10.59571 10.68555,-3.21289 -0.28711,-0.95703 -10.08594,3.03125 1.54297,-12.58008 7.4375,-7.35547 -0.70313,-0.71093 -7.68359,7.5996 -1.66016,13.5293 -0.002,0.002 -10.21484,11.3457 -19.26367,7.82226 -3.70704,1.50391 0.20313,-31.93164 3.39453,-4.01758 10.51367,-12.44726 14.97657,-4.08204 9.69921,-8.32812 -0.65039,-0.75781 -9.52929,8.17968 -14.13086,3.85157 2.49804,-12.63867 -3.64062,-9.61915 -0.93359,0.35352 3.5371,9.35156 -2.57421,13.02344 -13.61915,16.125 -5.23437,-7.59766 -9.30273,-13.5 -2.28907,-16.77539 -7.68945,-9.50586 -0.77734,0.62891 7.51367,9.28906 2.16211,15.85352 -13.90235,-4.0586 -10.19726,2.1836 0.21094,0.97851 9.94921,-2.13086 14.22852,4.1543 14.78711,21.45508 0,0.002 -0.20703,32.55274 0,0.002 -26.22461,39.48633 -0.002,0.002 -48.05804,27.74107 -7.57478,-33.62193 9.14258,-24.62695 0.002,-0.002 11.26758,-6.97852 7.32422,-4.53711 11.33008,0.76758 0.0684,-0.99609 -10.7168,-0.72657 0,-0.002 7.78906,-14.48438 1.84571,-14.24023 -6.06055,-10.04492 -0.85742,0.51758 5.88086,9.74414 -1.77539,13.71093 -8.00782,14.88868 0,0.002 -0.002,0 -7.09765,4.39648 -10.91602,6.75977 -0.43359,-21.32422 0,-0.002 5.22265,-11.58008 -0.91211,-0.41016 -4.82617,10.70117 -6.16406,-12.89062 -8.94922,-7.58594 -10.27539,-1.96094 -0.1875,0.98243 10.01758,1.91015 8.58593,7.27735 6.48829,13.57226 0.44921,22.11524 0,0.002 -3.54687,9.55469 -5.39453,14.52343 -16.97656,-17.8789 0,-0.002 -1.71289,-18.57618 -8.02344,-12.32812 -0.83985,0.54687 7.89063,12.11914 1.62305,17.60938 -13.85743,-6.86524 -9.78125,-10.52539 -11.82617,-3.7207 -10.19922,1.21094 0.11719,0.99414 9.98633,-1.18555 11.36914,3.57617 8.85156,9.52735 -10.38086,-0.27149 -9.16797,4.30469 0.42579,0.9043 8.95312,-4.20313 11.22266,0.29493 0.004,0 14.5586,7.21289 0.004,0.002 0.002,0.002 17.48632,18.41602 0,0.002 6.7306,35.04202 -10.43659,19.16413 -21.44244,37.43908 0.0113,-8.6e-4 -49.04116,-58.98969 -0.17091,-0.21755 -7.57276,-67.41569 25.68164,-43.00781 20.16992,-15.86328 21.50977,-6.53906 14.65234,3.13476 11.03125,-4.13671 -0.34961,-0.9375 -10.75976,4.03515 -13.63086,-2.91797 11.06054,-11.97656 9.9961,-1.45508 -0.14453,-0.99023 -9.30078,1.35351 4.96484,-12.04492 0,-0.002 0.002,0 10.21094,-6.73828 -0.55078,-0.83399 -9.70703,6.4043 -1.67774,-9.33594 -0.98437,0.17774 1.78515,9.93945 0,0.002 -5.26757,12.77735 0,0.002 -11.62305,12.58594 -20.42969,6.21094 6.78125,-12.44922 8.81055,-7.62305 -0.6543,-0.75781 -8.94922,7.74218 -7.40039,13.5918 -11.52734,9.06641 -7.9043,6.21679 -0.21875,-41.55859 10.22461,-21.14844 12.6543,-8.20507 12.94336,-2.21094 -0.16797,-0.98438 -13.14649,2.24414 -12.33984,8.00196 -3.18945,-14.29102 -0.97657,0.2168 3.3086,14.82422 0,0.002 -9.79883,20.26367 -10.92578,-23.88867 5.38086,-20.22461 0,-0.002 6.36328,-8.86524 -0.8125,-0.58203 -5.79102,8.06641 -3.34961,-13.16211 -0.96875,0.24609 3.58204,14.07617 -5.20313,19.55664 -12.03125,-11.19531 -4.89258,-4.55273 -0.34179,-2.75782 -1.60743,-12.9746 5.86329,-12.06055 9.25781,-7.67969 4.68164,-8.99414 -0.88867,-0.46094 z m 196.41211,164.55469 8.16992,6.30273 0,0.002 2.93359,12.68554 -7.52148,15.92774 -0.002,0 0,0.002 -28.89453,16.26367 -0.002,0 -44.70898,-2.48828 15.80273,-23.79687 9.99805,-15.05469 23.54101,-9.55664 18.59961,-0.25781 2.08399,-0.0293 z m 9.41796,7.26758 0.8418,0.65039 0.002,0 3.27149,9.49023 -1.56641,0.87696 -2.54883,-11.01758 z m -5.32812,28.51172 0.002,0 27.56641,0.58593 0.002,0 14.05664,6.40821 -0.31836,7.08008 -8.11328,11.74414 -6.4414,3.5039 -8.97266,4.87891 -0.002,0 -3.52735,-0.64844 -19.41406,-3.56054 -23.13477,-14.0625 28.29688,-15.92969 z m 42.60937,7.4414 4.16602,1.90039 0.002,0 0.63867,0.7461 -5.07031,3.21484 0.26367,-5.86133 z m 5.89063,1.95899 -0.23047,0.14648 -0.11719,-0.13867 0.34766,-0.008 z m -387.18359,52.20898 -9.8086,24.08789 -14.67187,9.48438 -0.002,0 -6.66797,0.41601 -8.08789,0.50391 -0.002,0 -11.70117,-4.16406 -1.08008,-1.4375 0.20703,-2.24024 7.67383,-14.86328 17.84766,-9.41406 0.002,0 26.29102,-2.37305 z"
       style="color:#000000;font-style:normal;font-variant:normal;font-weight:normal;font-stretch:normal;font-size:medium;line-height:normal;font-family:sans-serif;text-indent:0;text-align:start;text-decoration:none;text-decoration-line:none;text-decoration-style:solid;text-decoration-color:#000000;letter-spacing:normal;word-spacing:normal;text-transform:none;direction:ltr;block-progression:tb;writing-mode:lr-tb;baseline-shift:baseline;text-anchor:start;white-space:normal;clip-rule:nonzero;display:inline;overflow:visible;visibility:visible;opacity:1;isolation:auto;mix-blend-mode:normal;color-interpolation:sRGB;color-interpolation-filters:linearRGB;solid-color:#000000;solid-opacity:1;fill:#000000;fill-opacity:1;fill-rule:nonzero;stroke:none;stroke-width:1;stroke-linecap:butt;stroke-linejoin:miter;stroke-miterlimit:4;stroke-dasharray:none;stroke-dashoffset:0;stroke-opacity:1;color-rendering:auto;image-rendering:auto;shape-rendering:auto;text-rendering:auto;enable-background:accumulate" />
  </g>
  <g
     inkscape:label="lymph"
     id="layer3"
     inkscape:groupmode="layer"
     style="display:inline" />
  <g
     inkscape:label="roots"
     id="layer4"
     inkscape:groupmode="layer"
     style="display:inline" />
  <g
     inkscape:label="crown"
     id="layer5"
     inkscape:groupmode="layer"
     style="display:inline">
    <path
       style="opacity:0.70700001;fill:url(#linearGradient6061);fill-opacity:1;stroke:none;stroke-opacity:0.82122904"
       d="m 373.09086,267.3212 a 45.456863,26.263966 0 0 0 -45.31836,24.66211 29.294424,29.294424 0 0 0 -23.94336,24.01172 30.304577,24.243662 0 0 0 -12.56055,-2.20703 30.304577,24.243662 0 0 0 -29.37304,18.40234 320.21835,186.87822 0 0 0 -10.37891,2.21484 34.345188,21.213203 0 0 0 -6.71485,-0.41406 34.345188,21.213203 0 0 0 -19.25585,3.67188 31.31473,31.31473 0 0 0 -28.22071,-17.8125 31.31473,31.31473 0 0 0 -31.3164,31.31445 31.31473,31.31473 0 0 0 0.0371,1.04687 35.355339,28.284271 0 0 0 -13.16797,-2.05664 35.355339,28.284271 0 0 0 -35.35547,28.28321 35.355339,28.284271 0 0 0 2.36914,10.16992 32.324883,21.213203 0 0 0 -2.36914,-0.0684 32.324883,21.213203 0 0 0 -32.32424,21.21289 32.324883,21.213203 0 0 0 5.19924,11.5293 320.21835,186.87822 0 0 0 -3.53516,4.41992 53.538086,18.182745 0 0 0 -38.0293,17.38672 53.538086,18.182745 0 0 0 13.43946,12.01367 24.243662,37.375645 0 0 0 -13.43946,33.44142 24.243662,37.375645 0 0 0 6.72852,25.82617 320.21835,186.87822 0 0 0 0.12891,1.45508 43.436558,37.375645 0 0 0 -43.22266,37.36914 43.436558,37.375645 0 0 0 18.32422,30.46484 47.477169,22.223356 0 0 0 -6.20313,10.95117 47.477169,22.223356 0 0 0 38.25,21.79493 55.558392,39.39595 0 0 0 -5.92578,17.60156 55.558392,39.39595 0 0 0 55.5586,39.39648 55.558392,39.39595 0 0 0 36.43359,-9.6875 31.31473,25.253813 0 0 0 16.0957,3.62696 31.31473,25.253813 0 0 0 31.31446,-25.25391 31.31473,25.253813 0 0 0 -22.51172,-24.21875 28.284271,24.243662 0 0 0 8.36914,-17.19727 28.284271,24.243662 0 0 0 -1.56445,-7.86132 21.213203,24.243662 0 0 0 5.60546,-16.38282 21.213203,24.243662 0 0 0 -10.05859,-20.58789 244.45691,151.52289 0 0 1 7.20313,-6.75 42.426407,26.263966 0 0 0 25.07812,5.11524 42.426407,26.263966 0 0 0 39.19336,-16.23438 24.243662,27.274118 0 0 0 9.29297,2.0918 24.243662,27.274118 0 0 0 13.92187,-4.98633 39.39595,37.375645 0 0 0 15.37305,2.96484 39.39595,37.375645 0 0 0 25.63867,-9.05664 31.31473,24.243662 0 0 0 8.70703,0.97657 31.31473,24.243662 0 0 0 15.8418,-3.35938 29.294424,16.162441 0 0 0 26.58398,9.41992 29.294424,16.162441 0 0 0 29.29493,-16.16211 29.294424,16.162441 0 0 0 -24.52735,-15.92773 25.253813,18.182745 0 0 0 6.59961,-3.24805 38.385796,24.243662 0 0 0 34.08985,13.11524 38.385796,24.243662 0 0 0 14.06445,-1.69141 27.274118,33.335033 0 0 0 19.27148,9.77149 27.274118,33.335033 0 0 0 10.92383,-2.83399 26.263966,36.36549 0 0 0 24.42969,23.03711 26.263966,36.36549 0 0 0 22.40234,-17.4707 25.253813,27.274118 0 0 0 14.02539,5.29882 30.304577,34.345188 0 0 0 30.24414,32.375 30.304577,34.345188 0 0 0 17.00391,-5.95507 35.355339,14.142136 0 0 0 14.31836,3.33984 24.243662,26.263966 0 0 0 -3.03906,12.7168 24.243662,26.263966 0 0 0 1.20312,8.12304 34.345188,27.274118 0 0 0 -0.44336,1.60938 39.39595,19.192898 0 0 0 -15.91015,-1.65039 39.39595,19.192898 0 0 0 -39.39649,19.19336 39.39595,19.192898 0 0 0 39.39649,19.19336 39.39595,19.192898 0 0 0 31.88476,-7.95313 34.345188,27.274118 0 0 0 10.26758,3.26172 33.335033,21.213203 0 0 0 32.59766,16.8125 33.335033,21.213203 0 0 0 33.25781,-20.24609 31.31473,24.243662 0 0 0 1.08789,0.043 31.31473,24.243662 0 0 0 31.31445,-24.24414 31.31473,24.243662 0 0 0 -18.30859,-22.02735 320.21835,186.87822 0 0 0 0.12891,-0.24023 38.385796,24.243662 0 0 0 36.36132,-24.19922 38.385796,24.243662 0 0 0 -15.36523,-19.36328 29.294424,34.345188 0 0 0 11.32422,-27.10352 29.294424,34.345188 0 0 0 -21.85352,-33.17579 32.324883,24.243662 0 0 0 9.73242,-17.33203 32.324883,24.243662 0 0 0 -32.32421,-24.24414 32.324883,24.243662 0 0 0 -0.76172,0.0195 28.284271,18.182745 0 0 0 4.80273,-10.12109 28.284271,18.182745 0 0 0 -28.28516,-18.18164 28.284271,18.182745 0 0 0 -14.08984,2.4414 320.21835,186.87822 0 0 0 -6.83203,-5.24609 31.31473,29.294424 0 0 0 -18.10352,-15.67578 29.294424,18.182745 0 0 0 0.63868,-3.74414 29.294424,18.182745 0 0 0 -29.29297,-18.18165 29.294424,18.182745 0 0 0 -5.07422,0.27735 49.497475,30.304577 0 0 0 0.0234,-0.27735 49.497475,30.304577 0 0 0 -49.49805,-30.30468 49.497475,30.304577 0 0 0 -3.12305,0.0684 42.426407,15.152288 0 0 0 -42.33398,-14.21094 42.426407,15.152288 0 0 0 -39.65625,9.81836 32.324883,30.304577 0 0 0 -10.25,-4.60938 48.487324,26.263966 0 0 0 -13.24414,-3.77734 45.456863,26.263966 0 0 0 6.58203,-13.55274 45.456863,26.263966 0 0 0 -45.45703,-26.26562 z"
       id="path5943-4"
       inkscape:connector-curvature="0" />
    <path
       style="fill:url(#linearGradient6061-9);fill-opacity:1;stroke:none;stroke-opacity:0.82122904;filter:url(#filter6310)"
       d="m -1058.9085,-488.678 a 45.456863,26.263966 0 0 0 -45.3184,24.6621 29.294424,29.294424 0 0 0 -23.9434,24.0117 30.304577,24.243662 0 0 0 -12.5605,-2.207 30.304577,24.243662 0 0 0 -29.3731,18.4023 320.21835,186.87822 0 0 0 -10.3789,2.2149 34.345188,21.213203 0 0 0 -6.7148,-0.4141 34.345188,21.213203 0 0 0 -19.2559,3.6719 31.31473,31.31473 0 0 0 -28.2207,-17.8125 31.31473,31.31473 0 0 0 -31.3164,31.3144 31.31473,31.31473 0 0 0 0.037,1.0469 35.355339,28.284271 0 0 0 -13.1679,-2.0566 35.355339,28.284271 0 0 0 -35.3555,28.2832 35.355339,28.284271 0 0 0 2.3691,10.1699 32.324883,21.213203 0 0 0 -2.3691,-0.068 32.324883,21.213203 0 0 0 -32.3242,21.2129 32.324883,21.213203 0 0 0 5.1992,11.5293 320.21835,186.87822 0 0 0 -3.5352,4.4199 53.538086,18.182745 0 0 0 -38.0293,17.3867 53.538086,18.182745 0 0 0 13.4395,12.0137 24.243662,37.375645 0 0 0 -13.4395,33.4414 24.243662,37.375645 0 0 0 2.0118,14.8535 445.47726,164.65486 0 0 1 332.3476,-55.2597 445.47726,164.65486 0 0 1 327.5,53.2773 29.294424,34.345188 0 0 0 0.79883,-7.8183 29.294424,34.345188 0 0 0 -21.85352,-33.1758 32.324883,24.243662 0 0 0 9.73243,-17.3321 32.324883,24.243662 0 0 0 -32.32422,-24.2441 32.324883,24.243662 0 0 0 -0.76172,0.02 28.284271,18.182745 0 0 0 4.80273,-10.1211 28.284271,18.182745 0 0 0 -28.28515,-18.1816 28.284271,18.182745 0 0 0 -14.08985,2.4414 320.21835,186.87822 0 0 0 -6.83203,-5.2461 31.31473,29.294424 0 0 0 -18.10351,-15.6758 29.294424,18.182745 0 0 0 0.63867,-3.7441 29.294424,18.182745 0 0 0 -29.29297,-18.1817 29.294424,18.182745 0 0 0 -5.07422,0.2774 49.497475,30.304577 0 0 0 0.0234,-0.2774 49.497475,30.304577 0 0 0 -49.49805,-30.3047 49.497475,30.304577 0 0 0 -3.12305,0.068 42.426407,15.152288 0 0 0 -42.33398,-14.2109 42.426407,15.152288 0 0 0 -39.65625,9.8183 32.324883,30.304577 0 0 0 -10.25004,-4.6093 48.487324,26.263966 0 0 0 -13.2441,-3.7774 45.456863,26.263966 0 0 0 6.582,-13.5527 45.456863,26.263966 0 0 0 -45.457,-26.2656 z"
       id="path5943-4-7"
       inkscape:connector-curvature="0" />
    <path
       inkscape:connector-curvature="0"
       style="opacity:0.70700001;fill:url(#linearGradient9118);fill-opacity:1;stroke:#0000ff;stroke-opacity:0.82122904;filter:url(#filter9148)"
       d="m 368.90821,269.4311 a 45.456863,26.263966 0 0 0 -45.31836,24.6621 29.294424,29.294424 0 0 0 -23.94336,24.0118 30.304577,24.243662 0 0 0 -12.56054,-2.2071 30.304577,24.243662 0 0 0 -29.37305,18.4024 320.21835,186.87822 0 0 0 -10.37891,2.2148 34.345188,21.213203 0 0 0 -6.71484,-0.414 34.345188,21.213203 0 0 0 -19.25586,3.6718 31.31473,31.31473 0 0 0 -28.2207,-17.8125 31.31473,31.31473 0 0 0 -31.31641,31.3145 31.31473,31.31473 0 0 0 0.0371,1.0469 35.355339,28.284271 0 0 0 -13.16797,-2.0567 35.355339,28.284271 0 0 0 -35.35547,28.2832 35.355339,28.284271 0 0 0 2.36914,10.1699 32.324883,21.213203 0 0 0 -2.36914,-0.068 32.324883,21.213203 0 0 0 -32.32421,21.2129 32.324883,21.213203 0 0 0 5.19922,11.5293 320.21835,186.87822 0 0 0 -3.53516,4.4199 53.538086,18.182745 0 0 0 -38.02929,17.3867 53.538086,18.182745 0 0 0 13.4395,12.0137 24.243662,37.375645 0 0 0 -13.4395,33.4414 24.243662,37.375645 0 0 0 2.8242,17.4453 52.857143,39.285713 0 0 1 2.4453,0.7461 116.42857,90.714287 0 0 1 78.34377,-23.7402 116.42857,90.714287 0 0 1 43.88281,6.7461 130.71428,67.14286 0 0 1 128.97461,-56.7461 130.71428,67.14286 0 0 1 84.64844,16 120,87.85714 0 0 1 66.06641,-14.5723 120,87.85714 0 0 1 54.22656,9.5879 95.714287,60.714287 0 0 1 17.20117,-1.0156 95.714287,60.714287 0 0 1 95.71484,60.7129 95.714287,60.714287 0 0 1 -1.57617,10.6679 123.57143,67.14286 0 0 1 88.02149,38.5625 38.385796,24.243662 0 0 0 5.92578,-12.875 38.385796,24.243662 0 0 0 -15.36524,-19.3633 29.294424,34.345188 0 0 0 11.32422,-27.1035 29.294424,34.345188 0 0 0 -21.85351,-33.1758 32.324883,24.243662 0 0 0 9.73242,-17.332 32.324883,24.243662 0 0 0 -32.32422,-24.2441 32.324883,24.243662 0 0 0 -0.76172,0.02 28.284271,18.182745 0 0 0 4.80273,-10.1211 28.284271,18.182745 0 0 0 -28.28515,-18.1816 28.284271,18.182745 0 0 0 -14.08985,2.4414 320.21835,186.87822 0 0 0 -6.83203,-5.2461 31.31473,29.294424 0 0 0 -18.10351,-15.6758 29.294424,18.182745 0 0 0 0.63867,-3.7441 29.294424,18.182745 0 0 0 -29.29297,-18.1817 29.294424,18.182745 0 0 0 -5.07422,0.2774 49.497475,30.304577 0 0 0 0.0234,-0.2774 49.497475,30.304577 0 0 0 -49.49805,-30.3047 49.497475,30.304577 0 0 0 -3.12304,0.068 42.426407,15.152288 0 0 0 -42.33399,-14.2109 42.426407,15.152288 0 0 0 -39.65625,9.8183 32.324883,30.304577 0 0 0 -10.25,-4.6094 48.487324,26.263966 0 0 0 -13.24414,-3.7773 45.456863,26.263966 0 0 0 6.58203,-13.5527 45.456863,26.263966 0 0 0 -45.45703,-26.2657 z"
       id="path5943" />
  </g>
  <g
     style="display:inline"
     inkscape:label="ground"
     id="layer2"
     inkscape:groupmode="layer">
    <g
       id="g10149">
      <path
         sodipodi:nodetypes="scccscccs"
         inkscape:connector-curvature="0"
         id="path9384-6-0"
         d="m 365,684.36133 c -82.84271,0 -150,13.43146 -150,30 0.0849,13.63961 0,15.00087 -0.22322,30.00234 0.22322,14.99853 0.27264,14.35224 0.22322,27.99766 0,16.56854 67.15729,30 150,30 82.84271,0 150,-13.43146 150,-30 -0.0879,-13.63821 0,-12.99913 -0.0176,-27.72755 C 515,729.3622 514.9564,728.0068 515,714.36133 c 0,-16.56854 -67.15729,-30 -150,-30 z"
         style="display:inline;opacity:0.70700001;fill:url(#linearGradient10092);fill-opacity:1;stroke:#563030;stroke-width:0.30000001;stroke-miterlimit:4;stroke-dasharray:none;stroke-opacity:1" />
      <ellipse
         ry="30"
         rx="150"
         cy="714.36218"
         cx="365"
         id="path9384-6-9"
         style="display:inline;opacity:0.70700001;fill:url(#radialGradient10084);fill-opacity:1;stroke:#563030;stroke-width:0.30000001;stroke-miterlimit:4;stroke-dasharray:none;stroke-opacity:1" />
    </g>
  </g>
</svg>
